# xmcd CD database file
#
# Track frame offsets:
#	183
#	14425
#	29568
#	42185
#	57120
#	71770
#	86730
#	101225
#	112505
#	125063
#	136983
#	152263
#	167903
#	183480
#	198605
#	217863
#
# Disc length: 3638 seconds
#
# Revision: 0
# Processed by: cddbd v1.4PL0 Copyright (c) Steve Scherf et al.
# Submitted via: CDex 1.51
#
DISCID=dd0e3410
DTITLE=Benny Goodman - That's Jazz 5 - King Porter Stomp
DYEAR=1990
DGENRE=Jazz
TTITLE0=King Porter Stomp
TTITLE1=Don't Be That Way
TTITLE2=After You've Gone
TTITLE3=Down South Camp Meeting
TTITLE4=One O'Clock Jump
TTITLE5=Exactly Like You
TTITLE6=Roll'Em
TTITLE7=Goody Goody
TTITLE8=Nobody's Sweethart
TTITLE9=Runnin' Wild
TTITLE10=Moonglow
TTITLE11=Body And Soul
TTITLE12=My Melancholy Baby
TTITLE13=Blue Skies
TTITLE14=Avalon
TTITLE15=Sing Sing Sing (With A Swing)
EXTD=YEAR: 1990
EXTT0=
EXTT1=
EXTT2=
EXTT3=
EXTT4=
EXTT5=
EXTT6=
EXTT7=
EXTT8=
EXTT9=
EXTT10=
EXTT11=
EXTT12=
EXTT13=
EXTT14=
EXTT15=
PLAYORDER=
